<svg width="91" height="38" viewBox="0 0 91 38" fill="none" xmlns="http://www.w3.org/2000/svg">
<path d="M19.1779 0.692671C29.3829 0.692671 37.655 8.88846 37.655 18.9992C37.655 29.1099 29.3829 37.3057 19.1779 37.3057C8.97294 37.3057 0.699126 29.1099 0.699126 18.9992C0.699126 8.88846 8.97294 0.692671 19.1779 0.692671ZM19.1779 0C14.0559 0 9.2402 1.97629 5.61746 5.56558C1.99471 9.15326 0 13.9245 0 18.9992C0 24.0739 1.99471 28.8451 5.61746 32.4344C9.2402 36.0237 14.0542 38 19.1779 38C24.3016 38 29.1156 36.0237 32.7383 32.4344C36.3611 28.8451 38.3558 24.0755 38.3558 18.9992C38.3558 13.9228 36.3611 9.15326 32.7383 5.56397C29.1156 1.97629 24.2999 0 19.1779 0V0Z" fill="black"/>
<path d="M20.6266 17.4718H31.6415C31.6415 17.0132 31.6415 16.4417 31.6415 15.9444C31.6415 14.9207 30.5301 14.9998 30.5301 14.9998H29.7707V12.5278H31.6415V11.1748C31.6415 11.1748 31.6986 10.0558 30.4405 10.0558H26.8601V8.9353H24.3651V10.0558H19.5836V11.7108C19.5836 11.7108 19.5462 12.5278 20.6397 12.5278H21.4545V14.9998H19.5836V16.5757C19.5836 16.5757 19.5657 17.4718 20.6266 17.4718V17.4718ZM23.9495 12.5278H27.2757V14.9998H23.9495V12.5278Z" fill="black"/>
<path d="M29.1367 30.7455V27.3532H31.635L31.6399 27.3484V18.2952H19.5836V26.1019C19.5836 26.1019 19.5478 27.35 20.7765 27.35C22.0053 27.35 22.0705 27.35 22.0705 27.35V30.7455H19.639C19.5396 31.7143 19.0882 32.5797 18.4135 33.2175H19.5901C19.5901 33.2175 20.5842 33.2175 22.1846 33.2175C24.6747 33.2175 24.5671 30.8408 24.5671 30.8408V27.3548H26.6433V33.2191H29.0308C30.5676 33.2191 32.3407 30.7471 32.3407 30.7471H29.1384L29.1367 30.7455ZM25.5873 25.6821C24.81 25.6821 24.106 25.3769 23.5877 24.8812H22.0884L22.0786 20.7672H23.5893C24.1076 20.2715 24.8116 19.9663 25.5889 19.9663C26.3663 19.9663 27.0703 20.2715 27.5885 20.7672H29.1465V24.8812H27.5885C27.0703 25.3769 26.3663 25.6821 25.5889 25.6821H25.5873Z" fill="black"/>
<path d="M25.5515 20.68C24.3472 20.68 23.371 21.6472 23.371 22.8404C23.371 24.0336 24.3472 25.0007 25.5515 25.0007C26.7558 25.0007 27.732 24.0336 27.732 22.8404C27.732 21.6472 26.7558 20.68 25.5515 20.68ZM25.5515 24.3178C24.7285 24.3178 24.0603 23.6558 24.0603 22.8404C24.0603 22.025 24.7285 21.363 25.5515 21.363C26.3745 21.363 27.0426 22.025 27.0426 22.8404C27.0426 23.6558 26.3745 24.3178 25.5515 24.3178Z" fill="black"/>
<path d="M18.4885 31.7515C18.6531 31.4447 18.7639 31.104 18.8144 30.7456H15.2879V22.4158H18.7525V20.9174C18.7525 19.8033 17.7389 19.9454 17.7389 19.9454H15.2879V17.4734H18.8128V17.4702C18.8128 17.4702 18.8128 17.0585 18.8128 16.5547V14.8949C18.8128 14.3911 18.5195 13.6888 18.1593 13.3319L14.7598 9.96383C14.4013 9.60861 13.813 9.60861 13.4529 9.96383L10.0436 13.3416C9.68507 13.6968 9.3901 14.4008 9.3901 14.9046V16.545C9.3901 17.0488 9.39336 17.4637 9.39662 17.467C9.39988 17.4702 9.69647 17.1812 10.0566 16.826L13.4529 13.4595C13.8114 13.1026 14.3997 13.1026 14.7598 13.4595L16.3162 15.0014C16.3162 15.0014 14.4861 15.0014 13.5409 15.0014C12.7016 15.0014 12.1719 15.6247 12.1719 15.6247L10.024 17.7527H12.7928V19.9454H9.3298V21.489C9.3298 21.489 9.23039 22.4174 10.3011 22.4174H12.7928V30.7472H9.3298C9.3298 30.7472 10.1283 33.2192 11.5967 33.2192H11.7319C11.9796 33.2192 12.0676 33.2192 12.0644 33.2192H16.4254C16.5671 33.2192 16.7024 33.203 16.8311 33.1739C17.4357 32.9576 17.954 32.5588 18.3109 32.0421C18.3223 32.026 18.3337 32.0098 18.3435 31.992C18.3777 31.9404 18.4087 31.8871 18.4396 31.8338C18.4559 31.8064 18.4722 31.7789 18.4869 31.7515H18.4885Z" fill="black"/>
<path d="M15.7751 24.5406C15.1249 25.1848 15.1249 26.2295 15.7751 26.8737C16.4254 27.5179 17.4798 27.5179 18.13 26.8737C18.7802 26.2295 18.7802 25.1848 18.13 24.5406C17.4798 23.8964 16.4254 23.8964 15.7751 24.5406Z" fill="black"/>
<path d="M11.1713 28.0766C11.5298 27.7214 11.8248 27.0174 11.8248 26.5137V24.1531C11.8248 23.6493 11.8248 23.2376 11.8215 23.2376C11.8183 23.2376 11.5249 23.5282 11.1664 23.8851L9.98328 25.0573C9.62476 25.4125 9.32979 26.1165 9.32979 26.6202V28.9808C9.32979 29.4846 9.32979 29.8963 9.33305 29.8963C9.33631 29.8963 9.62965 29.6057 9.9898 29.2488L11.1713 28.0782V28.0766Z" fill="black"/>
<path d="M51.4567 26.9431H57.9248V28.1589H54.0886V29.4377H57.6902V30.6535H54.0886V32.1099H58.0976V33.3257H51.4567V26.9431Z" fill="black"/>
<path d="M59.2873 26.9431H63.1871C65.7864 26.9431 66.8978 27.7117 66.8978 29.9285C66.8978 32.1454 66.3812 33.3257 62.9198 33.3257H59.2856V26.9431H59.2873ZM61.9192 32.2181H62.6232C63.8454 32.2181 64.2675 31.9403 64.2675 30.0286C64.2675 28.4738 64.0475 28.0524 62.6542 28.0524H61.9175V32.2181H61.9192Z" fill="black"/>
<path d="M68.3237 26.9431H70.954V33.3257H68.3237V26.9431Z" fill="black"/>
<path d="M74.6991 26.9431H77.9877L80.7745 33.3257H78.0497L77.6423 32.1099H74.9647L74.5736 33.3257H71.8488L74.6991 26.9431V26.9431ZM76.2961 28.1056H76.2652L75.3412 30.9474H77.2528L76.2978 28.1056H76.2961Z" fill="black"/>
<path d="M51.5984 18.5406H54.2287V24.9232H51.5984V18.5406Z" fill="black"/>
<path d="M55.9057 18.5406H60.322C62.5612 18.5406 63.3288 19.327 63.3288 20.2037C63.3288 21.1337 62.6704 21.589 61.4498 21.7586V21.7763C63.1251 21.9103 63.2196 22.5094 63.2506 23.3667C63.2978 24.6277 63.376 24.7521 63.7525 24.8425V24.9232H60.9185C60.7148 24.7085 60.6366 24.3517 60.6366 23.6267C60.6366 22.5174 60.3709 22.2849 59.5398 22.2849H58.5376V24.9216H55.9073V18.539L55.9057 18.5406ZM58.5359 21.2306H59.3508C60.4149 21.2306 60.6969 20.7753 60.6969 20.3991C60.6969 19.9163 60.384 19.595 59.3345 19.595H58.5359V21.2306Z" fill="black"/>
<path d="M64.8948 18.5406H69.3112C71.5504 18.5406 72.318 19.327 72.318 20.2037C72.318 21.1337 71.6596 21.589 70.439 21.7586V21.7763C72.1143 21.9103 72.2088 22.5094 72.2397 23.3667C72.287 24.6277 72.3652 24.7521 72.7417 24.8425V24.9232H69.9077C69.704 24.7085 69.6258 24.3517 69.6258 23.6267C69.6258 22.5174 69.3601 22.2849 68.529 22.2849H67.5268V24.9216H64.8965V18.539L64.8948 18.5406ZM67.5251 21.2306H68.34C69.4041 21.2306 69.6861 20.7753 69.6861 20.3991C69.6861 19.9163 69.3732 19.595 68.3237 19.595H67.5251V21.2306Z" fill="black"/>
<path d="M77.564 25.0492C74.1026 25.0492 73.6332 23.7623 73.6332 21.7327C73.6332 19.7032 74.1026 18.4163 77.564 18.4163C81.291 18.4163 81.4947 19.9631 81.4947 21.7327C81.4947 23.5024 81.291 25.0492 77.564 25.0492ZM77.5493 24.0481C78.6135 24.0481 78.7699 23.4846 78.7699 21.7327C78.7699 19.9809 78.6135 19.4174 77.5493 19.4174C76.4851 19.4174 76.3596 19.9809 76.3596 21.7327C76.3596 23.4846 76.5161 24.0481 77.5493 24.0481Z" fill="black"/>
<path d="M82.8734 18.5406H87.2898C89.5289 18.5406 90.2965 19.327 90.2965 20.2037C90.2965 21.1337 89.6397 21.589 88.4175 21.7586V21.7763C90.0944 21.9103 90.1873 22.5094 90.2183 23.3667C90.2655 24.6277 90.3438 24.7521 90.7186 24.8425V24.9232H87.8846C87.6809 24.7085 87.6027 24.3517 87.6027 23.6267C87.6027 22.5174 87.337 22.2849 86.5059 22.2849H85.5037V24.9216H82.8717V18.539L82.8734 18.5406ZM85.5053 21.2306H86.3201C87.3843 21.2306 87.6662 20.7753 87.6662 20.3991C87.6662 19.9163 87.3533 19.595 86.3038 19.595H85.5053V21.2306Z" fill="black"/>
<path d="M41.9557 25.9485L41.3071 21.8022H41.2761V25.9485H38.9261V18.5293H42.7787L43.8314 25.9485H41.9557ZM46.8822 25.9485V21.8022H46.8512L46.2368 25.9485H44.5029L45.5198 18.5293H49.325V25.9485H46.8822V25.9485Z" fill="black"/>
<path d="M38.9261 25.9485H41.2761V33.3209H38.9261V25.9485ZM43.1079 33.3209L41.9557 25.9485H43.8314L44.1574 28.2461H44.1883L44.5029 25.9485H46.2368L45.1433 33.3209H43.1079ZM46.8822 25.9485H49.325V33.3209H46.8822V25.9485Z" fill="black"/>
</svg>
